<?xml version="1.0" encoding="UTF-8"?>
<svg id="Layer_2" data-name="Layer 2" xmlns="http://www.w3.org/2000/svg" viewBox="0 0 929.71 263.5">
  <defs>
    <style>
      .cls-1, .cls-2, .cls-3, .cls-4, .cls-5 {
        stroke-width: 0px;
      }

      .cls-1, .cls-5 {
        fill: #f32409;
      }

      .cls-3 {
        fill: #b3b3b3;
      }

      .cls-4 {
        fill: #050c56;
      }

      .cls-5 {
        fill-rule: evenodd;
      }
    </style>
  </defs>
  <g id="Layer_1-2" data-name="Layer 1">
    <g>
      <path class="cls-3" d="M273.68,252.63c-1,0-1.81-.81-1.81-1.81V30.53c0-1,.81-1.81,1.81-1.81s1.81.81,1.81,1.81v220.28c0,1-.81,1.81-1.81,1.81Z"/>
      <g>
        <polygon class="cls-4" points="0 48.13 0 53.41 48.62 67.92 48.62 239.06 74.55 239.06 74.55 48.13 0 48.13"/>
        <path class="cls-5" d="M187.02,2.51c1.56-2.27-.48-3.59-2.41-1.35-28.16,32.78-84.61,105.64-96.84,169.32-2.82,14.7-3.6,28.44-.51,42.02,2.94,12.96,13.17,28.24,33.96,28.93,35.28,1.18,63.86-39.62,85.62-97.97.39-1.04-1-1.79-1.48-.79-23.92,49.95-62.08,82.61-82.49,72.83-33.65-16.13,6.07-128.57,64.16-213Z"/>
      </g>
      <g>
        <path class="cls-2" d="M428.37,239.07v-58.14h14.74v5.47c5.47-4.98,12.3-6.67,19.02-6.67,13.54,0,24.19,8.57,24.19,24.79v34.55h-14.74v-28.77c0-9.51-3.68-15.93-13.64-15.93s-14.83,6.91-14.83,15.93v28.77h-14.74Z"/>
        <path class="cls-2" d="M492.8,239.07v-58.14h14.74v58.14h-14.74Z"/>
        <path class="cls-2" d="M571.86,181.03l-16.42,58.14h-26.69l-16.82-58.14h15.55l14.12,51.01h1l14.37-51.01h14.9Z"/>
        <path class="cls-2" d="M860.02,180.92l-19.16,68.32-1.76,6.27c-1.33,4.73-5.63,7.99-10.54,7.99h-18.09v-14.26h13.73c1.04,0,1.95-.69,2.23-1.69l2.37-8.48h-11.88l-16.83-58.15h15.55l14.12,51.01h.99l14.38-51.01h14.88Z"/>
        <path class="cls-2" d="M600.81,179.93c13.91,0,28.48,7.37,28.48,30.37,0,1.49,0,3.03-.24,5.52h-42.24c1.71,5.67,6.45,10.11,18.27,10.11,6.45,0,15.52-2.34,21.73-5.97h.1v14.63c-9.4,4.23-15.19,5.48-23.26,5.48-18.8,0-31.8-9.95-31.8-30.07s13.95-30.07,28.94-30.07ZM614.33,204.07c-.47-4.28-4.37-10-13.53-10-7.07,0-12.81,3.44-14.19,10h27.71Z"/>
        <path class="cls-2" d="M636.21,239.07v-58.14h14.74v5.28c3.14-3.88,8.81-6.67,16.33-6.67,4.13,0,6.72.65,8.26,1.09v16.33h-.1c-2.28-1.93-6.23-3.3-9.82-3.3-6.32,0-14.67,3.48-14.67,12.49v32.93h-14.74Z"/>
        <path class="cls-2" d="M705.77,179.73c9.81,0,18.77,3.45,22.6,5.93v14.93c-11.79-7.3-34.35-8.71-34.35-2.55,0,1.99,2.24,3.19,10.65,4.98l5.03,1.05c14.33,3.04,20.9,8.02,20.9,18.77,0,10.95-8.01,17.62-26.13,17.62-10.95,0-20.4-2.93-25.68-6.67v-15.83c4.82,2.99,14.97,7.79,26.68,8.42,6.88.37,9.95-1.25,9.95-3.84,0-2.68-3.44-3.83-10.8-5.28l-3.53-.7c-14.39-2.84-22.02-7.96-22.02-18.42,0-12.44,11.57-18.42,26.7-18.42Z"/>
        <g>
          <rect class="cls-2" x="736.21" y="180.93" width="14.74" height="58.14"/>
          <path class="cls-1" d="M736.21,159.2h15.8c0,8.72-7.08,15.8-15.8,15.8h0v-15.8h0Z"/>
        </g>
        <path class="cls-2" d="M769.6,194.86h-12.14v-13.94h12.14v-17.27h14.74v17.27h12.14v13.94h-12.14v44.2h-14.74v-44.2Z"/>
        <path class="cls-2" d="M406.12,158.96v46.95c0,10.99-7.39,19.29-18.65,19.29s-18.65-8.25-18.65-19.29v-46.95h-14.93v50.13c0,6.15,1.62,11.6,4.88,16.34,3.26,4.76,7.53,8.46,12.85,11.12,13.62,6.81,26.77,2.46,31.7,0,5.32-2.66,9.59-6.36,12.85-11.12,3.26-4.74,4.88-10.19,4.88-16.34v-50.13h-14.93Z"/>
        <g>
          <path class="cls-2" d="M394.88,48.13v14.54h-25.84v66.63h-15.14V62.67h-25.84v-14.54h66.83Z"/>
          <path class="cls-2" d="M399.71,129.29V48.13h14.94v27.76c5.55-5.05,12.47-6.76,19.28-6.76,13.73,0,24.53,7.67,24.53,23.12v37.05h-14.94v-29.17c0-9.64-3.73-16.15-13.83-16.15s-15.04,7.02-15.04,16.15v29.17h-14.94Z"/>
          <path class="cls-2" d="M510.27,125.26c-4.09,3.43-10.35,5.25-17.36,5.25-14.23,0-28.77-10.3-28.77-30.69s14.54-30.69,28.97-30.69c6.81,0,13.07,1.82,17.16,5.05v-3.84h14.94v58.95h-14.94v-4.04ZM495.13,115.97c8.58,0,15.75-6.16,15.75-16.15s-7.17-16.15-15.75-16.15-15.75,6.16-15.75,16.15,7.17,16.15,15.75,16.15Z"/>
          <path class="cls-2" d="M531.92,129.29v-58.95h14.94v5.55c5.55-5.05,12.47-6.76,19.28-6.76,13.73,0,24.53,8.68,24.53,25.14v35.03h-14.94v-29.17c0-9.64-3.73-16.15-13.83-16.15s-15.04,7.02-15.04,16.15v29.17h-14.94Z"/>
          <path class="cls-2" d="M632.08,155.04l-28.16-.1v-14.13l24.43.1c10.65.05,13.93-1.67,13.93-11.81v-3.84c-4.09,3.43-9.84,5.25-16.86,5.25-14.23,0-28.77-10.3-28.77-30.69s14.54-30.69,28.97-30.69c6.81,0,12.57,1.82,16.66,5.05v-3.84h14.94v59.36c0,19.99-7.17,25.39-25.14,25.34ZM627.64,115.97c8.58,0,15.75-6.16,15.75-16.15s-7.17-16.15-15.75-16.15-15.75,6.16-15.75,16.15,7.17,16.15,15.75,16.15Z"/>
          <path class="cls-2" d="M683.71,48.13h15.14v66.42h35.74v14.74h-50.88V48.13Z"/>
          <path class="cls-2" d="M737.5,99.82c0-20.39,15.04-30.69,30.99-30.69s30.99,10.3,30.99,30.69-15.04,30.69-30.99,30.69-30.99-10.3-30.99-30.69ZM768.5,115.97c8.58,0,15.75-6.16,15.75-16.15s-7.17-16.15-15.75-16.15-15.75,6.16-15.75,16.15,7.17,16.15,15.75,16.15Z"/>
          <path class="cls-2" d="M804.76,129.29v-58.95h14.94v5.55c5.55-5.05,12.47-6.76,19.28-6.76,13.73,0,24.53,8.68,24.53,25.14v35.03h-14.94v-29.17c0-9.64-3.74-16.15-13.83-16.15s-15.04,7.02-15.04,16.15v29.17h-14.94Z"/>
          <path class="cls-2" d="M904.58,155.04l-28.16-.1v-14.13l24.43.1c10.65.05,13.93-1.67,13.93-11.81v-3.84c-4.09,3.43-9.84,5.25-16.86,5.25-14.23,0-28.77-10.3-28.77-30.69s14.54-30.69,28.97-30.69c6.81,0,12.57,1.82,16.66,5.05v-3.84h14.94v59.36c0,19.99-7.17,25.39-25.14,25.34ZM900.14,115.97c8.58,0,15.75-6.16,15.75-16.15s-7.17-16.15-15.75-16.15-15.75,6.16-15.75,16.15,7.17,16.15,15.75,16.15Z"/>
        </g>
      </g>
    </g>
  </g>
</svg>